<?xml version="1.0" encoding="UTF-8"?>
<svg id="_图层_1" data-name="图层 1" xmlns="http://www.w3.org/2000/svg" viewBox="0 0 200 200">
  <rect width="200" height="200" rx="12" ry="12" style="fill: #fff;"/>
  <path d="M108.23,134.43c8.74,8.32,13.8,9.53,25.64,11.36,17.74,2.73,31.09,1.44,48.12-3.46,2.65-.76,5.78-4.26,8.66-1.33-5.87,6.45-16.45,10.95-25.07,12.25-14.11,2.12-39.89.85-52.73-4.44-.98-.4-2.48.14-3.53-.47-.46-.27-4.26-7.63-5.44-9.23-3.7-5.03-15.14-17.8-19.87-21.46-.75-.58-1.94-1.76-2.93-1.57-.84.17-8.71,11.66-10.42,13.58-2.04,2.3-7.76,8.3-10.48,8.85-2.07.42-4.6-.56-6.23,1.11-.44.45-2.7,5.25-3.09,6.24-1.22,3.09-3.55,14.96-5.17,16.2-2.76,2.1-4.61-4.53-7.69-2.06-.41-.5.42-11.34.72-12.94.75-4.02,3.45-7.68,2.59-12.04-.72-3.68-10.76-11-9.9-14.54.43-1.78,2.59-2.01,4.09-1.68,2.89.62,5.49,7.38,9.17,7.59,1.88-.9,7.79-18.78,8.68-22.04-.2-2.62-7.98-1.68-10.34-2.33-.53-6.21,9.61-3.97,13.3-4.68,2.47-.48,6.81-10.25,8.46-12.88,2.99-4.77,6.8-9.45,9.57-14.43,4.51-8.12,7.69-18.54,11.66-27.07-.16-6.31-12.32-.89-11.85-6.5.57-6.76,11.11-4.62,15.35-2.96,3.24,1.27,7.38,3.78,7.1,7.42-.12,1.58-2.87,6.75-.93,7.09,4.88-1.45,12.41-6.37,17.03-2.38.32.28,4.43,5.8,4.52,6.17.9,3.81-7.36,20.04-9.63,24.13-6.08,10.93-14.11,21.26-20.95,31.76-.32,2.94,2.36,3.42,3.71,4.95,6.21,7.03,10.93,15.18,17.87,21.8ZM80.47,103.79l18.98-29.34c1.71-6.29,7.08-11.97,8.25-18.43s-3.39-3.66-7.05-1.71c-7.13,3.8-13.43,10.76-18.12,17.21l-11.26,27.48c.04,2.43,7.41,6.36,9.2,4.78ZM57.34,131.33c1.27,1.23,8.28-5.75,9.35-6.98,1.65-1.9,5.99-7.55,7.09-9.57,3.07-5.62-4.52-8.17-6.78-6.12-.52.48-5.33,10.46-5.99,12.01-.54,1.26-4.07,10.27-3.66,10.66Z"/>
</svg>